<svg version="1.1" xmlns="http://www.w3.org/2000/svg" viewBox="0 0 725 360" width="725" height="360">
    <!-- svg-source:excalidraw -->

    <defs>
        <style class="style-fonts">
            @font-face {
            font-family: "Virgil";
            src: url("https://excalidraw.com/Virgil.woff2");
            }
            @font-face {
            font-family: "Cascadia";
            src: url("https://excalidraw.com/Cascadia.woff2");
            }
        </style>

    </defs>
    <rect x="0" y="0" width="725" height="360" fill="#ffffff"></rect><g stroke-linecap="round" transform="translate(235 10) rotate(0 50.5 24.5)"><path d="M47.69 0.44 C56.36 -0.13, 68.18 0.9, 76.06 3.07 C83.95 5.23, 90.84 9.39, 95.01 13.43 C99.18 17.46, 101.88 22.84, 101.08 27.27 C100.27 31.7, 95.82 36.6, 90.18 40.02 C84.55 43.43, 75.86 46.3, 67.27 47.77 C58.68 49.23, 47.52 49.89, 38.64 48.79 C29.77 47.69, 20.31 44.35, 14.01 41.16 C7.7 37.97, 2.6 33.98, 0.81 29.64 C-0.98 25.31, -0.12 19.4, 3.27 15.16 C6.65 10.92, 13.54 6.82, 21.11 4.21 C28.69 1.61, 43.8 0.19, 48.7 -0.47 C53.61 -1.12, 50.47 -0.17, 50.56 0.29 M52.98 0.5 C61.65 0.28, 71.96 1.31, 79.41 3.81 C86.87 6.3, 94.34 11.36, 97.73 15.49 C101.13 19.62, 101.58 24.4, 99.8 28.61 C98.01 32.81, 93.26 37.56, 87.02 40.73 C80.79 43.89, 71.16 46.5, 62.38 47.59 C53.6 48.69, 42.77 48.5, 34.33 47.31 C25.89 46.13, 17.37 43.8, 11.75 40.47 C6.13 37.15, 1.78 31.82, 0.6 27.35 C-0.58 22.88, 0.54 17.61, 4.69 13.65 C8.84 9.69, 17.45 5.96, 25.5 3.59 C33.55 1.22, 48.42 -0.12, 52.99 -0.57 C57.55 -1.02, 52.93 0.39, 52.89 0.88" stroke="#1e1e1e" stroke-width="2" fill="none"></path></g><g transform="translate(258.24944151919567 22.175883860929588) rotate(0 27.04166603088379 12.5)"><text x="27.04166603088379" y="0" font-family="Virgil, Segoe UI Emoji" font-size="20px" fill="#1e1e1e" text-anchor="middle" style="white-space: pre;" direction="ltr" dominant-baseline="text-before-edge">Store</text></g><g stroke-linecap="round" transform="translate(233 301) rotate(0 58 24.5)"><path d="M65.76 0.43 C75.69 0.66, 87.54 3.12, 95.54 5.98 C103.55 8.84, 110.68 13.46, 113.78 17.6 C116.89 21.74, 117.14 26.55, 114.17 30.82 C111.19 35.09, 103.9 40.21, 95.95 43.22 C88 46.22, 76.68 48.19, 66.46 48.86 C56.23 49.53, 44.11 49.08, 34.62 47.24 C25.13 45.41, 15.29 41.58, 9.52 37.86 C3.76 34.14, 0.11 29.33, 0.04 24.92 C-0.03 20.52, 3.48 15.13, 9.08 11.42 C14.69 7.72, 23.91 4.58, 33.68 2.7 C43.44 0.83, 61.55 0.5, 67.66 0.18 C73.77 -0.15, 70.51 0.37, 70.35 0.77 M55.68 0.29 C65.79 -0.24, 79.39 1.34, 88.48 3.67 C97.57 5.99, 105.75 10.43, 110.19 14.24 C114.64 18.06, 116.24 22.24, 115.14 26.54 C114.04 30.83, 110.21 36.37, 103.59 40.02 C96.97 43.67, 85.57 47.06, 75.42 48.46 C65.26 49.86, 52.63 49.68, 42.68 48.44 C32.72 47.2, 22.68 44.26, 15.68 41.01 C8.67 37.75, 2.54 33.19, 0.65 28.92 C-1.24 24.65, 0.3 19.49, 4.34 15.38 C8.38 11.28, 16.14 6.9, 24.88 4.29 C33.62 1.68, 51.49 0.35, 56.76 -0.28 C62.03 -0.91, 56.6 -0.04, 56.5 0.5" stroke="#1e1e1e" stroke-width="2" fill="none"></path></g><g transform="translate(255.63780821705905 313.1758838609296) rotate(0 35.349998474121094 12.5)"><text x="35.349998474121094" y="0" font-family="Virgil, Segoe UI Emoji" font-size="20px" fill="#1e1e1e" text-anchor="middle" style="white-space: pre;" direction="ltr" dominant-baseline="text-before-edge">Basket</text></g><g stroke-linecap="round" transform="translate(215 123) rotate(0 69 36)"><path d="M41.8 3.36 C51.27 0.42, 64.25 -0.49, 75.51 0.21 C86.78 0.91, 99.85 3.89, 109.41 7.55 C118.97 11.21, 128.26 16.72, 132.87 22.16 C137.48 27.59, 138.43 34.46, 137.08 40.16 C135.72 45.87, 131.31 51.57, 124.74 56.39 C118.18 61.2, 108.13 66.56, 97.7 69.05 C87.26 71.55, 73.78 71.92, 62.12 71.35 C50.45 70.78, 37.17 69.19, 27.7 65.62 C18.22 62.05, 9.96 55.38, 5.27 49.94 C0.59 44.5, -1.84 38.75, -0.42 32.96 C1 27.17, 6.23 20.34, 13.78 15.2 C21.34 10.07, 38.85 4.35, 44.92 2.15 C50.98 -0.04, 49.61 1.39, 50.18 2.03 M47.76 0.58 C58.08 -1.75, 73.52 -1.22, 84.56 0.35 C95.6 1.92, 105.67 5.92, 113.99 9.99 C122.31 14.06, 130.62 19.21, 134.49 24.77 C138.37 30.33, 139.65 37.22, 137.24 43.36 C134.83 49.51, 127.99 56.98, 120.01 61.64 C112.03 66.3, 100.37 69.61, 89.36 71.29 C78.35 72.98, 65.27 73.27, 53.94 71.73 C42.61 70.2, 30 66.37, 21.39 62.06 C12.77 57.75, 5.69 51.57, 2.26 45.87 C-1.18 40.16, -1.67 33.59, 0.78 27.85 C3.23 22.11, 9.01 15.96, 16.95 11.43 C24.9 6.9, 43.27 2.17, 48.45 0.66 C53.64 -0.86, 47.68 1.73, 48.07 2.36" stroke="#1e1e1e" stroke-width="2" fill="none"></path></g><g transform="translate(240.28463286106762 146.54415587728428) rotate(0 43.92499923706055 12.5)"><text x="43.92499923706055" y="0" font-family="Virgil, Segoe UI Emoji" font-size="20px" fill="#1e1e1e" text-anchor="middle" style="white-space: pre;" direction="ltr" dominant-baseline="text-before-edge">Products</text></g><g stroke-linecap="round"><g transform="translate(282.92538012409636 70.16196674471428) rotate(0 -0.6071035038722812 21.899734688150392)"><path d="M0.08 0.09 C-0.1 7.35, -0.97 36.4, -1.19 43.66 M-0.06 0.01 C-0.25 7.28, -1.08 36.5, -1.29 43.79" stroke="#1e1e1e" stroke-width="2" fill="none"></path></g><g transform="translate(282.92538012409636 70.16196674471428) rotate(0 -0.6071035038722812 21.899734688150392)"><path d="M-8.19 22.99 C-6.42 27.77, -5.31 32.38, -1.29 43.79 M-8.19 22.99 C-6.79 27.3, -5.2 31.53, -1.29 43.79" stroke="#1e1e1e" stroke-width="2" fill="none"></path></g><g transform="translate(282.92538012409636 70.16196674471428) rotate(0 -0.6071035038722812 21.899734688150392)"><path d="M6.79 23.42 C5.16 28.11, 2.89 32.62, -1.29 43.79 M6.79 23.42 C5.12 27.65, 3.65 31.79, -1.29 43.79" stroke="#1e1e1e" stroke-width="2" fill="none"></path></g></g><mask></mask><g stroke-linecap="round" transform="translate(10 130) rotate(0 63 24.5)"><path d="M56.69 0.11 C66.56 -0.61, 79.82 0.79, 89.39 2.53 C98.96 4.28, 108.04 7.22, 114.1 10.57 C120.16 13.92, 124.7 18.65, 125.77 22.64 C126.84 26.63, 124.91 30.93, 120.5 34.52 C116.09 38.11, 107.85 41.84, 99.29 44.18 C90.74 46.52, 79.55 48.21, 69.17 48.58 C58.78 48.95, 46.58 47.99, 36.98 46.4 C27.38 44.81, 17.64 42.31, 11.58 39.05 C5.52 35.78, 1.64 30.86, 0.64 26.79 C-0.37 22.72, 1.25 18.28, 5.56 14.61 C9.88 10.94, 17.59 7.15, 26.51 4.78 C35.42 2.41, 53.44 1.11, 59.05 0.4 C64.66 -0.3, 60.18 0.16, 60.17 0.54 M68.43 0.52 C78.61 0.58, 90.79 2.72, 99.38 4.99 C107.96 7.25, 115.47 10.44, 119.91 14.1 C124.36 17.77, 126.85 22.88, 126.05 26.97 C125.25 31.05, 121.24 35.44, 115.11 38.61 C108.98 41.78, 98.93 44.27, 89.26 45.99 C79.59 47.71, 67.58 49.2, 57.1 48.95 C46.62 48.71, 34.97 46.97, 26.37 44.53 C17.77 42.09, 9.87 38.05, 5.52 34.33 C1.16 30.61, -0.76 26.13, 0.26 22.21 C1.28 18.29, 5.71 14.03, 11.64 10.82 C17.58 7.61, 26.32 4.86, 35.86 2.97 C45.4 1.08, 63.58 -0.24, 68.88 -0.54 C74.18 -0.83, 67.81 0.71, 67.68 1.2" stroke="#1e1e1e" stroke-width="2" fill="none"></path></g><g transform="translate(40.77727354818694 142.1758838609296) rotate(0 32.17499923706055 12.5)"><text x="32.17499923706055" y="0" font-family="Virgil, Segoe UI Emoji" font-size="20px" fill="#1e1e1e" text-anchor="middle" style="white-space: pre;" direction="ltr" dominant-baseline="text-before-edge">Offers</text></g><g stroke-linecap="round"><g transform="translate(228.21153705063216 46.13704557104651) rotate(0 -59.114436690191724 39.00273102144011)"><path d="M0.02 -0.08 C-19.73 12.8, -98.81 64.9, -118.25 77.73 M-1.43 -1.16 C-20.83 11.86, -96.75 66.03, -116 79.17" stroke="#1e1e1e" stroke-width="2" fill="none"></path></g><g transform="translate(228.21153705063216 46.13704557104651) rotate(0 -59.114436690191724 39.00273102144011)"><path d="M-98.78 54.6 C-104.32 60.99, -110.04 71.6, -116 79.17 M-98.78 54.6 C-102.52 59.06, -106.46 65.41, -116 79.17" stroke="#1e1e1e" stroke-width="2" fill="none"></path></g><g transform="translate(228.21153705063216 46.13704557104651) rotate(0 -59.114436690191724 39.00273102144011)"><path d="M-87.02 71.42 C-96.39 72.42, -105.88 77.65, -116 79.17 M-87.02 71.42 C-93.28 72.35, -99.74 75.1, -116 79.17" stroke="#1e1e1e" stroke-width="2" fill="none"></path></g></g><mask></mask><g stroke-linecap="round" transform="translate(444 124) rotate(0 135.5 24.5)"><path d="M142.66 0.49 C159.2 0.3, 178.38 1.13, 194.01 2.34 C209.65 3.55, 224.98 5.38, 236.45 7.75 C247.92 10.13, 257.13 13.56, 262.84 16.56 C268.55 19.57, 271.56 22.68, 270.69 25.81 C269.81 28.94, 265 32.56, 257.59 35.35 C250.19 38.13, 239.04 40.44, 226.28 42.5 C213.52 44.57, 197.25 46.61, 181.01 47.71 C164.78 48.82, 146.15 49.37, 128.87 49.13 C111.59 48.88, 92.96 47.58, 77.32 46.23 C61.67 44.87, 46.51 43.23, 34.98 40.98 C23.46 38.73, 14.01 35.72, 8.16 32.7 C2.32 29.69, -0.86 26.05, -0.08 22.87 C0.7 19.69, 5.3 16.46, 12.84 13.63 C20.38 10.8, 32.35 7.89, 45.15 5.87 C57.95 3.86, 73.08 2.55, 89.64 1.55 C106.2 0.55, 135 0.02, 144.51 -0.13 C154.03 -0.28, 146.76 0.23, 146.72 0.67 M146.49 0.44 C162.96 0.43, 182.47 1.99, 197.81 3.42 C213.16 4.85, 227.57 6.75, 238.58 9.03 C249.59 11.31, 258.46 14.2, 263.87 17.1 C269.27 20, 272.42 23.43, 271.03 26.45 C269.64 29.46, 263.58 32.4, 255.55 35.2 C247.52 38, 235.85 41.07, 222.83 43.27 C209.8 45.47, 193.9 47.52, 177.39 48.4 C160.89 49.29, 141.09 48.89, 123.81 48.58 C106.53 48.27, 89.02 47.87, 73.7 46.55 C58.39 45.23, 43.16 43.08, 31.94 40.67 C20.73 38.26, 11.71 35.1, 6.41 32.09 C1.11 29.08, -1.22 25.76, 0.14 22.6 C1.5 19.43, 6.57 15.92, 14.58 13.09 C22.59 10.26, 35.03 7.73, 48.2 5.63 C61.37 3.53, 77.13 1.49, 93.59 0.48 C110.05 -0.53, 138.18 -0.36, 146.97 -0.41 C155.76 -0.45, 146.45 -0.37, 146.34 0.21" stroke="#1e1e1e" stroke-width="2" fill="none"></path></g><g transform="translate(541.9036983245157 136.1758838609296) rotate(0 37.78333282470703 12.5)"><text x="37.78333282470703" y="0" font-family="Virgil, Segoe UI Emoji" font-size="20px" fill="#1e1e1e" text-anchor="middle" style="white-space: pre;" direction="ltr" dominant-baseline="text-before-edge">Delivery</text></g><g stroke-linecap="round"><g transform="translate(340.01429354011043 46.27326558235946) rotate(0 80.21706702528297 35.55833836394352)"><path d="M1.07 -1.06 C27.33 10.93, 131.8 58.83, 158.11 71.06 M0.18 0.99 C26.74 13.19, 133.94 60.64, 160.26 72.18" stroke="#1e1e1e" stroke-width="2" fill="none"></path></g><g transform="translate(340.01429354011043 46.27326558235946) rotate(0 80.21706702528297 35.55833836394352)"><path d="M130.32 70.19 C138.94 68.82, 149.77 70.91, 160.26 72.18 M130.32 70.19 C140.21 70.84, 150.67 71.58, 160.26 72.18" stroke="#1e1e1e" stroke-width="2" fill="none"></path></g><g transform="translate(340.01429354011043 46.27326558235946) rotate(0 80.21706702528297 35.55833836394352)"><path d="M138.61 51.41 C144.21 56.64, 152.16 65.26, 160.26 72.18 M138.61 51.41 C145.78 58.38, 153.42 65.5, 160.26 72.18" stroke="#1e1e1e" stroke-width="2" fill="none"></path></g></g><mask></mask><g stroke-linecap="round"><g transform="translate(288.12027267293706 207.99320976904036) rotate(0 -0.9869576845793517 43.09727096322224)"><path d="M-0.12 0.14 C-0.44 14.47, -1.69 71.78, -2.01 86.11 M0.09 0.08 C-0.23 14.43, -1.71 71.6, -2.07 85.9" stroke="#1e1e1e" stroke-width="2" fill="none"></path></g><g transform="translate(288.12027267293706 207.99320976904036) rotate(0 -0.9869576845793517 43.09727096322224)"><path d="M-11.61 57.45 C-8.97 64.61, -6.73 71.51, -2.07 85.9 M-11.61 57.45 C-8.09 67.81, -4.7 77.99, -2.07 85.9" stroke="#1e1e1e" stroke-width="2" fill="none"></path></g><g transform="translate(288.12027267293706 207.99320976904036) rotate(0 -0.9869576845793517 43.09727096322224)"><path d="M8.91 57.98 C6.56 64.99, 3.8 71.76, -2.07 85.9 M8.91 57.98 C5.05 68.15, 1.08 78.14, -2.07 85.9" stroke="#1e1e1e" stroke-width="2" fill="none"></path></g></g><mask></mask><g stroke-linecap="round"><g transform="translate(499.7381499000944 174.72641793616793) rotate(0 -72.82846463717158 69.30749834402465)"><path d="M-0.45 0.53 C-15.75 7.7, -68.27 19.22, -92.73 42.27 C-117.18 65.33, -138.36 122.78, -147.18 138.85 M1.52 -0.24 C-13.86 7.11, -69.26 20.44, -93.67 43.29 C-118.07 66.13, -136.32 120.71, -144.9 136.84" stroke="#1e1e1e" stroke-width="2" fill="none"></path></g><g transform="translate(499.7381499000944 174.72641793616793) rotate(0 -72.82846463717158 69.30749834402465)"><path d="M-142.81 106.91 C-142.57 113.62, -145.59 118.34, -144.9 136.84 M-142.81 106.91 C-143.49 117.22, -143.54 127.83, -144.9 136.84" stroke="#1e1e1e" stroke-width="2" fill="none"></path></g><g transform="translate(499.7381499000944 174.72641793616793) rotate(0 -72.82846463717158 69.30749834402465)"><path d="M-124.06 115.25 C-127.97 120.03, -135.18 122.88, -144.9 136.84 M-124.06 115.25 C-131.37 122.69, -138.02 130.37, -144.9 136.84" stroke="#1e1e1e" stroke-width="2" fill="none"></path></g></g><mask></mask><g stroke-linecap="round"><g transform="translate(85 191) rotate(0 72.03775337375703 61.18788056039253)"><path d="M-0.3 -0.57 C12.03 4.77, 50.74 12.75, 74.86 33.14 C98.97 53.52, 132.94 106.91, 144.37 121.76 M1.75 1.74 C14.34 7.73, 53.29 14.02, 76.97 34.22 C100.64 54.42, 132.73 108.08, 143.8 122.95" stroke="#1e1e1e" stroke-width="2" fill="none"></path></g><g transform="translate(85 191) rotate(0 72.03775337375703 61.18788056039253)"><path d="M119.49 105.37 C127.86 110.14, 136.53 119.3, 143.8 122.95 M119.49 105.37 C126.45 110.51, 132.54 114.31, 143.8 122.95" stroke="#1e1e1e" stroke-width="2" fill="none"></path></g><g transform="translate(85 191) rotate(0 72.03775337375703 61.18788056039253)"><path d="M136.48 93.85 C138.55 102.93, 140.82 116.42, 143.8 122.95 M136.48 93.85 C138.63 102.25, 139.98 109.26, 143.8 122.95" stroke="#1e1e1e" stroke-width="2" fill="none"></path></g></g><mask></mask><g stroke-linecap="round"><g transform="translate(354 333) rotate(0 92.92607470192024 -75.28819164699875)"><path d="M-0.52 -0.94 C18.78 -13.16, 85.18 -48.08, 116.33 -73.21 C147.48 -98.35, 174.67 -138.81, 186.37 -151.75 M1.41 1.18 C21.05 -10.87, 87.96 -46.45, 118.69 -71.79 C149.42 -97.12, 174.41 -137.84, 185.8 -150.83" stroke="#1e1e1e" stroke-width="2" fill="none"></path></g><g transform="translate(354 333) rotate(0 92.92607470192024 -75.28819164699875)"><path d="M176.89 -122.19 C178.38 -133.19, 182.68 -141.38, 185.8 -150.83 M176.89 -122.19 C178.12 -128.65, 180.53 -134.87, 185.8 -150.83" stroke="#1e1e1e" stroke-width="2" fill="none"></path></g><g transform="translate(354 333) rotate(0 92.92607470192024 -75.28819164699875)"><path d="M160.56 -134.61 C167.72 -141.24, 177.67 -145.13, 185.8 -150.83 M160.56 -134.61 C165.72 -138.14, 172 -141.41, 185.8 -150.83" stroke="#1e1e1e" stroke-width="2" fill="none"></path></g></g><mask></mask><g stroke-linecap="round"><g transform="translate(225 328) rotate(0 -86.73400408169255 -71.2536160763353)"><path d="M0.09 0.48 C-16.2 -8.87, -69.23 -32.4, -98.11 -56.31 C-126.99 -80.22, -160.41 -128.51, -173.21 -142.99 M-1.31 -0.32 C-17.65 -9.47, -69.88 -31.38, -98.59 -54.94 C-127.3 -78.5, -160.81 -127.13, -173.56 -141.66" stroke="#1e1e1e" stroke-width="2" fill="none"></path></g><g transform="translate(225 328) rotate(0 -86.73400408169255 -71.2536160763353)"><path d="M-148.01 -125.94 C-154.08 -128.67, -162.29 -133.08, -173.56 -141.66 M-148.01 -125.94 C-155.82 -130.11, -163.72 -136.12, -173.56 -141.66" stroke="#1e1e1e" stroke-width="2" fill="none"></path></g><g transform="translate(225 328) rotate(0 -86.73400408169255 -71.2536160763353)"><path d="M-164.1 -113.19 C-165.81 -119.38, -169.68 -127.22, -173.56 -141.66 M-164.1 -113.19 C-166.97 -121.18, -170.02 -131.03, -173.56 -141.66" stroke="#1e1e1e" stroke-width="2" fill="none"></path></g></g><mask></mask></svg>